<?xml version="1.0" encoding="iso-8859-1"?>
<!-- Generator: Adobe Illustrator 16.0.0, SVG Export Plug-In . SVG Version: 6.00 Build 0)  -->
<!DOCTYPE svg PUBLIC "-//W3C//DTD SVG 1.1//EN" "http://www.w3.org/Graphics/SVG/1.1/DTD/svg11.dtd">
<svg version="1.1" id="Capa_1" xmlns="http://www.w3.org/2000/svg" xmlns:xlink="http://www.w3.org/1999/xlink" x="0px" y="0px"
	 width="334.333px" height="334.333px" viewBox="0 0 334.333 334.333" style="enable-background:new 0 0 334.333 334.333;"
	 xml:space="preserve">
<g>
	<path d="M317.514,16.789C306.688,5.963,292.291,0,276.981,0c-15.312,0-29.706,5.963-40.532,16.789l-77.675,77.676
		c-3.325-1.057-6.78-1.591-10.289-1.591c-9.057,0-17.572,3.526-23.979,9.931c-9.969,9.97-12.699,24.977-7.005,37.764l-95.052,95.053
		c-2.361,2.362-3.632,5.601-3.506,8.938l1.394,36.92L1.836,311.571c-2.91,4.73-2.191,10.842,1.736,14.771l4.477,4.477
		c2.315,2.314,5.388,3.515,8.489,3.515c2.17,0,4.354-0.587,6.304-1.791L52.98,313.92l36.743,1.441
		c3.343,0.132,6.589-1.141,8.955-3.505l95.057-95.058c4.315,1.916,9.055,2.924,13.795,2.924c9.056,0,17.567-3.526,23.97-9.931
		c8.938-8.938,12.143-22.261,8.339-34.263l77.675-77.677C339.862,75.503,339.862,39.138,317.514,16.789z M114.624,248.764
		l-44.301-13.871l69.154-69.152l29.085,29.085L114.624,248.764z"/>
</g>
<g>
</g>
<g>
</g>
<g>
</g>
<g>
</g>
<g>
</g>
<g>
</g>
<g>
</g>
<g>
</g>
<g>
</g>
<g>
</g>
<g>
</g>
<g>
</g>
<g>
</g>
<g>
</g>
<g>
</g>
</svg>
