<svg id="svg2" xmlns="http://www.w3.org/2000/svg" viewBox="0 0 114.74 115.77"><defs><style>.cls-1{fill:none;stroke:#fff;}.cls-1,.cls-2,.cls-3{stroke-width:8.4px;}.cls-2{fill:#fff;}.cls-2,.cls-3{stroke:#000;}</style></defs><path id="path11" class="cls-1" d="M52.47,37.12H99.86A15.08,15.08,0,0,1,114.94,52.2v48.42A15.08,15.08,0,0,1,99.86,115.7H52.47a15.08,15.08,0,0,1-15.08-15.08V52.2A15.08,15.08,0,0,1,52.47,37.12Z" transform="translate(-4.39 -4.12)"/><path id="path11-2" data-name="path11" class="cls-1" d="M23.67,8.32H71.06A15.08,15.08,0,0,1,86.14,23.4V71.82A15.08,15.08,0,0,1,71.06,86.9H23.67A15.08,15.08,0,0,1,8.59,71.82V23.4A15.08,15.08,0,0,1,23.67,8.32Z" transform="translate(-4.39 -4.12)"/><path id="path11-3" data-name="path11" class="cls-2" d="M54.58,44.41H97.75a10,10,0,0,1,10,10v44a10,10,0,0,1-10,10H54.58a10,10,0,0,1-10-10v-44A10,10,0,0,1,54.58,44.41Z" transform="translate(-4.39 -4.12)"/><path id="path11-4" data-name="path11" class="cls-3" d="M25.78,15.61H69a10,10,0,0,1,10,10v44a10,10,0,0,1-10,10H25.78a10,10,0,0,1-10-10v-44A10,10,0,0,1,25.78,15.61Z" transform="translate(-4.39 -4.12)"/></svg>