<?xml version="1.0" encoding="utf-8"?>
<!-- Generator: Adobe Illustrator 24.1.2, SVG Export Plug-In . SVG Version: 6.00 Build 0)  -->
<svg version="1.1" id="Layer_1" xmlns="http://www.w3.org/2000/svg" xmlns:xlink="http://www.w3.org/1999/xlink" x="0px" y="0px"
	 viewBox="0 0 400.29 401.29" style="enable-background:new 0 0 400.29 401.29;" xml:space="preserve">
<style type="text/css">
	.st0{fill:none;stroke:#FFFFFF;stroke-width:150;stroke-miterlimit:10;}
	.st1{fill:#FFFFFF;}
	.st2{fill:none;stroke:#000000;stroke-width:19;stroke-miterlimit:10;}
	.st3{fill:none;stroke:#000000;stroke-width:67;stroke-miterlimit:10;}
</style>
<path class="st0" d="M132.39,125.21h38.24c57.69,0,104.45,46.77,104.45,104.45v38.24"/>
<path class="st1" d="M0,125.21L116.27,8.94c19.1-19.1,51.75-5.57,51.75,21.43v189.67c0,27.01-32.65,40.53-51.75,21.43L0,125.21
	L0,125.21z"/>
<path class="st2" d="M205.42,27.45"/>
<path class="st2" d="M275.09,324.08"/>
<polygon points="43.63,125.21 132.39,36.44 132.39,213.97 43.63,125.21 "/>
<path class="st1" d="M275.09,401.29L158.82,285.03c-19.1-19.1-5.57-51.75,21.43-51.75h189.67c27.01,0,40.53,32.65,21.43,51.75
	L275.09,401.29L275.09,401.29z"/>
<polygon points="275.09,356.67 186.32,267.9 363.85,267.9 275.09,356.67 "/>
<path class="st3" d="M132.39,125.21h38.24c57.69,0,104.45,46.77,104.45,104.45v38.24"/>
</svg>
