<?xml version="1.0" encoding="utf-8"?>
<!-- Generator: Adobe Illustrator 24.1.0, SVG Export Plug-In . SVG Version: 6.00 Build 0)  -->
<svg version="1.1" id="Layer_1" xmlns="http://www.w3.org/2000/svg" xmlns:xlink="http://www.w3.org/1999/xlink" x="0px" y="0px"
	 viewBox="0 0 313.37 313.39" style="enable-background:new 0 0 313.37 313.39;" xml:space="preserve">
<style type="text/css">
	.st0{fill:#D8D8D8;}
</style>
<g>
	<path class="st0" d="M225.83,55.86l28.92,28.82c1.21,1.21,2.15,2.68,2.67,4.28c2.95-0.87,5.82-2.18,8.51-3.98
		c0.12-0.08,0.24-0.17,0.36-0.26c-1.06-2.67-2.72-5.12-4.78-7.18l-28.79-28.72c-2.98-2.97-6.85-4.72-10.89-5.29
		c-1.74,2.99-2.96,6.24-3.62,9.6C220.97,52.94,223.81,53.84,225.83,55.86z"/>
	<path class="st0" d="M94.19,188.82c0.06,0,0.12,0.04,0.15,0.09l0.15,0.29l11.9,2.02l-4.73-9.43c-0.83-1.64-2.51-2.68-4.35-2.68
		H89.9c-0.15,0-0.22-0.18-0.12-0.28l94.07-94.6c0.06-0.06,0.17-0.07,0.23,0l17.68,17.62c0.06,0.06,0.06,0.17,0,0.23l-90.3,90
		l11.76,2l85.42-85.14c0.06-0.06,0.17-0.06,0.23,0l17.68,17.62c0.07,0.06,0.06,0.17,0,0.24l-73.29,72.4l11.75,2l89.62-88.61
		l-1.23-12.32l-19.7,19.46c-0.06,0.06-0.17,0.06-0.23,0l-42.53-42.39c-0.06-0.06-0.06-0.17,0-0.23l17.68-17.78l-13.92,0.05
		L74.38,180.49c-0.58,0.58-1,1.3-1.23,2.09l-0.82,2.86l19.9,3.39H94.19z"/>
	<path class="st0" d="M218.2,53.14c-2.27,0.16-4.48,1.06-6.13,2.72l-3.45,3.47l8.98-0.03C217.59,57.22,217.8,55.16,218.2,53.14z"/>
	<path class="st0" d="M221.82,43.54c2.3-3.95,5.49-7.45,9.55-10.17c4.41-2.96,9.31-4.63,14.25-5.11
		C194.41-7.18,124.67-9.83,69.78,26.92C25.74,56.42,1.52,104.42,0.52,153.68c1.41-1.38,2.96-2.65,4.66-3.78
		c9.99-6.69,22.32-7.14,32.42-2.29L67.18,86.2c-4.27-2.32-8.06-5.67-10.94-9.98c-9.52-14.22-5.71-33.48,8.51-43s33.48-5.71,43,8.51
		c3.69,5.52,5.37,11.79,5.23,17.96l81.73-0.31l10.47-10.54C209.57,44.45,215.88,42.7,221.82,43.54z"/>
	<path class="st0" d="M81.63,188.82c-0.07,0-0.14,0.05-0.16,0.12l-6.59,22.99c-0.02,0.06,0,0.12,0.04,0.16l23.36,23.28
		c0.04,0.04,0.1,0.06,0.16,0.04l23.19-6.6h0v-12.64c0-0.06-0.04-0.12-0.09-0.15l-16.63-8.29c-0.97-0.49-1.76-1.27-2.25-2.25
		l-8.17-16.28l-2.25-0.38H81.63z"/>
	<path class="st0" d="M108.26,194.98c0.05,0.1,0.18,0.12,0.26,0.04l2.94-2.93l-5.09-0.87L108.26,194.98z"/>
	<path class="st0" d="M286.45,69.8c-2.16-3.23-4.43-6.35-6.78-9.36c-0.39,9.42-5.06,18.53-13.39,24.28
		c0.65,1.64,1.09,3.38,1.24,5.16c0.52,5.85-1.52,11.43-5.62,15.52l-7.27,7.19l7.47,74.63c11.08-1.1,22.38,3.78,29.01,13.68
		c9.58,14.31,5.75,33.67-8.56,43.25c-14.31,9.58-33.67,5.75-43.25-8.56c-4.62-6.9-6.11-14.98-4.82-22.57l-69.47-11.82l-35.09,34.7
		c-0.58,0.58-1.3,1-2.09,1.22l-68.12,19.42c-0.44,0.12-0.89,0.19-1.34,0.19c-1.27,0-2.51-0.5-3.44-1.42
		c-1.25-1.25-1.73-3.07-1.24-4.76l18.65-65.1l-16.67-2.84c-1.46,8.55-6.28,16.51-14.05,21.72c-10.2,6.83-22.84,7.16-33.06,1.98
		c4.33,12.9,10.42,25.45,18.35,37.3c47.99,71.67,145,90.87,216.67,42.88S334.44,141.47,286.45,69.8z"/>
	<path class="st0" d="M65.74,244.72l21.63-6.16c0.12-0.03,0.16-0.19,0.07-0.28l-15.45-15.4c-0.09-0.09-0.24-0.05-0.28,0.07
		l-6.18,21.56C65.5,244.64,65.62,244.76,65.74,244.72z"/>
	<path class="st0" d="M115.41,201.88c-0.08,0.08-0.06,0.21,0.04,0.27l13.22,6.59c1.65,0.82,2.69,2.5,2.69,4.34v7.37
		c0,0.15,0.18,0.22,0.28,0.12l21.62-21.36l-30.04-5.11L115.41,201.88z"/>
	<path class="st0" d="M257.86,91.24c-0.04-0.78-0.21-1.55-0.44-2.28c-1.66,0.49-3.35,0.84-5.04,1.04l1.03,10.27l1.63-1.61
		C257,96.71,258.02,94.05,257.86,91.24z"/>
</g>
<circle class="st0" cx="23.4" cy="177.11" r="17.92"/>
<circle class="st0" cx="81.99" cy="58.97" r="16.96"/>
<circle class="st0" cx="248.65" cy="59.18" r="16.99"/>
<circle class="st0" cx="265.21" cy="218.24" r="17.06"/>
</svg>
