<?xml version="1.0" encoding="utf-8"?>
<!-- Generator: Adobe Illustrator 24.1.2, SVG Export Plug-In . SVG Version: 6.00 Build 0)  -->
<svg version="1.1" id="Layer_1" xmlns="http://www.w3.org/2000/svg" xmlns:xlink="http://www.w3.org/1999/xlink" x="0px" y="0px"
	 viewBox="0 0 351.4 351.4" style="enable-background:new 0 0 351.4 351.4;" xml:space="preserve">
<style type="text/css">
	.st0{stroke:#FFFFFF;stroke-width:12;stroke-miterlimit:10;}
</style>
<path class="st0" d="M91.3,307.1c72.6,46.6,169.2,25.6,215.8-47s25.6-169.2-47-215.8S90.9,18.7,44.3,91.3S18.7,260.5,91.3,307.1z
	 M66.7,117.4l155.1-68.1l78,139.6L61.6,247.5L66.7,117.4z"/>
<path class="st0" d="M202.9,114.4L100.5,215.5c-0.5,0.5-0.9,1.2-1.1,1.9l-11.6,45.2c-0.3,1.4,0,2.8,1,3.8c0.7,0.8,1.8,1.2,2.8,1.2
	c0.3,0,0.6,0,1-0.1l45.3-11c0.7-0.2,1.3-0.5,1.9-1l102.4-101.1L202.9,114.4z"/>
<path class="st0" d="M267.8,101l-11.3-11.4c-7.5-7.6-20.7-7.7-28.3-0.2l-14,13.8l39.4,39.9l14-13.8c3.8-3.8,5.9-8.8,6-14.1
	C273.6,109.8,271.6,104.8,267.8,101z"/>
</svg>
